<mxfile host="app.diagrams.net" agent="Mozilla/5.0 (Windows NT 10.0; Win64; x64) AppleWebKit/537.36 (KHTML, like Gecko) Chrome/129.0.0.0 Safari/537.36" version="24.7.17">
  <diagram id="C5RBs43oDa-KdzZeNtuy" name="Page-1">
    <mxGraphModel dx="1776" dy="751" grid="0" gridSize="10" guides="1" tooltips="1" connect="1" arrows="1" fold="1" page="0" pageScale="1" pageWidth="827" pageHeight="1169" math="0" shadow="0">
      <root>
        <mxCell id="WIyWlLk6GJQsqaUBKTNV-0" />
        <mxCell id="WIyWlLk6GJQsqaUBKTNV-1" parent="WIyWlLk6GJQsqaUBKTNV-0" />
        <mxCell id="WIyWlLk6GJQsqaUBKTNV-2" value="" style="rounded=0;html=1;jettySize=auto;orthogonalLoop=1;fontSize=11;endArrow=block;endFill=0;endSize=8;strokeWidth=1;shadow=0;labelBackgroundColor=none;edgeStyle=orthogonalEdgeStyle;" parent="WIyWlLk6GJQsqaUBKTNV-1" edge="1">
          <mxGeometry relative="1" as="geometry">
            <mxPoint x="581" y="120" as="sourcePoint" />
            <mxPoint x="581" y="170" as="targetPoint" />
            <Array as="points">
              <mxPoint x="581" y="130" />
              <mxPoint x="581" y="130" />
            </Array>
          </mxGeometry>
        </mxCell>
        <mxCell id="WIyWlLk6GJQsqaUBKTNV-3" value="EV User" style="rounded=1;whiteSpace=wrap;html=1;fontSize=12;glass=0;strokeWidth=1;shadow=0;fillColor=#dae8fc;strokeColor=#6c8ebf;" parent="WIyWlLk6GJQsqaUBKTNV-1" vertex="1">
          <mxGeometry x="160" y="80" width="120" height="40" as="geometry" />
        </mxCell>
        <mxCell id="WIyWlLk6GJQsqaUBKTNV-5" value="No" style="edgeStyle=orthogonalEdgeStyle;rounded=0;html=1;jettySize=auto;orthogonalLoop=1;fontSize=11;endArrow=block;endFill=0;endSize=8;strokeWidth=1;shadow=0;labelBackgroundColor=none;" parent="WIyWlLk6GJQsqaUBKTNV-1" source="WIyWlLk6GJQsqaUBKTNV-6" target="WIyWlLk6GJQsqaUBKTNV-7" edge="1">
          <mxGeometry y="10" relative="1" as="geometry">
            <mxPoint as="offset" />
          </mxGeometry>
        </mxCell>
        <mxCell id="WIyWlLk6GJQsqaUBKTNV-6" value="Chargers&amp;nbsp;&lt;div&gt;Available&lt;/div&gt;" style="rhombus;whiteSpace=wrap;html=1;shadow=0;fontFamily=Helvetica;fontSize=12;align=center;strokeWidth=1;spacing=6;spacingTop=-4;fillColor=#dae8fc;strokeColor=#6c8ebf;" parent="WIyWlLk6GJQsqaUBKTNV-1" vertex="1">
          <mxGeometry x="170" y="170" width="100" height="80" as="geometry" />
        </mxCell>
        <mxCell id="WIyWlLk6GJQsqaUBKTNV-7" value="Park and wait for charge" style="rounded=1;whiteSpace=wrap;html=1;fontSize=12;glass=0;strokeWidth=1;shadow=0;fillColor=#dae8fc;strokeColor=#6c8ebf;" parent="WIyWlLk6GJQsqaUBKTNV-1" vertex="1">
          <mxGeometry x="320" y="190" width="120" height="40" as="geometry" />
        </mxCell>
        <mxCell id="WIyWlLk6GJQsqaUBKTNV-8" value="No" style="rounded=0;html=1;jettySize=auto;orthogonalLoop=1;fontSize=11;endArrow=block;endFill=0;endSize=8;strokeWidth=1;shadow=0;labelBackgroundColor=none;edgeStyle=orthogonalEdgeStyle;" parent="WIyWlLk6GJQsqaUBKTNV-1" edge="1">
          <mxGeometry x="0.3333" y="20" relative="1" as="geometry">
            <mxPoint as="offset" />
            <mxPoint x="220" y="355" as="sourcePoint" />
            <mxPoint x="220" y="415" as="targetPoint" />
          </mxGeometry>
        </mxCell>
        <mxCell id="WIyWlLk6GJQsqaUBKTNV-11" value="Exit Parking Station" style="rounded=1;whiteSpace=wrap;html=1;fontSize=12;glass=0;strokeWidth=1;shadow=0;fillColor=#dae8fc;strokeColor=#6c8ebf;" parent="WIyWlLk6GJQsqaUBKTNV-1" vertex="1">
          <mxGeometry x="160" y="417" width="120" height="40" as="geometry" />
        </mxCell>
        <mxCell id="WIyWlLk6GJQsqaUBKTNV-12" value="Charge Ev" style="rounded=1;whiteSpace=wrap;html=1;fontSize=12;glass=0;strokeWidth=1;shadow=0;fillColor=#dae8fc;strokeColor=#6c8ebf;" parent="WIyWlLk6GJQsqaUBKTNV-1" vertex="1">
          <mxGeometry x="166" y="314" width="120" height="40" as="geometry" />
        </mxCell>
        <mxCell id="lSNYRlEXptxHOEds5puz-1" value="yes" style="rounded=0;html=1;jettySize=auto;orthogonalLoop=1;fontSize=11;endArrow=block;endFill=0;endSize=8;strokeWidth=1;shadow=0;labelBackgroundColor=none;edgeStyle=orthogonalEdgeStyle;" edge="1" parent="WIyWlLk6GJQsqaUBKTNV-1">
          <mxGeometry x="0.3333" y="20" relative="1" as="geometry">
            <mxPoint as="offset" />
            <mxPoint x="220" y="251" as="sourcePoint" />
            <mxPoint x="220" y="311" as="targetPoint" />
          </mxGeometry>
        </mxCell>
        <mxCell id="lSNYRlEXptxHOEds5puz-3" value="Station Manager" style="rounded=1;whiteSpace=wrap;html=1;fontSize=12;glass=0;strokeWidth=1;shadow=0;fillColor=#fff2cc;strokeColor=#d6b656;" vertex="1" parent="WIyWlLk6GJQsqaUBKTNV-1">
          <mxGeometry x="531" y="81" width="120" height="40" as="geometry" />
        </mxCell>
        <mxCell id="lSNYRlEXptxHOEds5puz-4" value="" style="rounded=0;html=1;jettySize=auto;orthogonalLoop=1;fontSize=11;endArrow=block;endFill=0;endSize=8;strokeWidth=1;shadow=0;labelBackgroundColor=none;edgeStyle=orthogonalEdgeStyle;" edge="1" parent="WIyWlLk6GJQsqaUBKTNV-1">
          <mxGeometry relative="1" as="geometry">
            <mxPoint x="225" y="121" as="sourcePoint" />
            <mxPoint x="225" y="171" as="targetPoint" />
          </mxGeometry>
        </mxCell>
        <mxCell id="lSNYRlEXptxHOEds5puz-5" value="Chargers&amp;nbsp;&lt;div&gt;Available&lt;/div&gt;" style="rhombus;whiteSpace=wrap;html=1;shadow=0;fontFamily=Helvetica;fontSize=12;align=center;strokeWidth=1;spacing=6;spacingTop=-4;fillColor=#fff2cc;strokeColor=#d6b656;" vertex="1" parent="WIyWlLk6GJQsqaUBKTNV-1">
          <mxGeometry x="533" y="171" width="100" height="80" as="geometry" />
        </mxCell>
        <mxCell id="lSNYRlEXptxHOEds5puz-8" value="Add charging&lt;div&gt;&amp;nbsp;Stations&lt;/div&gt;" style="rounded=1;whiteSpace=wrap;html=1;fontSize=12;glass=0;strokeWidth=1;shadow=0;fillColor=#fff2cc;strokeColor=#d6b656;" vertex="1" parent="WIyWlLk6GJQsqaUBKTNV-1">
          <mxGeometry x="680" y="198" width="120" height="40" as="geometry" />
        </mxCell>
        <mxCell id="lSNYRlEXptxHOEds5puz-9" value="Yes" style="rounded=0;html=1;jettySize=auto;orthogonalLoop=1;fontSize=11;endArrow=block;endFill=0;endSize=8;strokeWidth=1;shadow=0;labelBackgroundColor=none;edgeStyle=orthogonalEdgeStyle;" edge="1" parent="WIyWlLk6GJQsqaUBKTNV-1">
          <mxGeometry x="0.3333" y="20" relative="1" as="geometry">
            <mxPoint as="offset" />
            <mxPoint x="583" y="252" as="sourcePoint" />
            <mxPoint x="583" y="312" as="targetPoint" />
          </mxGeometry>
        </mxCell>
        <mxCell id="lSNYRlEXptxHOEds5puz-12" value="Monitor stations" style="rounded=1;whiteSpace=wrap;html=1;fontSize=12;glass=0;strokeWidth=1;shadow=0;fillColor=#fff2cc;strokeColor=#d6b656;" vertex="1" parent="WIyWlLk6GJQsqaUBKTNV-1">
          <mxGeometry x="529" y="315" width="115" height="37" as="geometry" />
        </mxCell>
        <mxCell id="lSNYRlEXptxHOEds5puz-13" value="No" style="edgeStyle=orthogonalEdgeStyle;rounded=0;html=1;jettySize=auto;orthogonalLoop=1;fontSize=11;endArrow=block;endFill=0;endSize=8;strokeWidth=1;shadow=0;labelBackgroundColor=none;" edge="1" parent="WIyWlLk6GJQsqaUBKTNV-1">
          <mxGeometry y="10" relative="1" as="geometry">
            <mxPoint as="offset" />
            <mxPoint x="627" y="220" as="sourcePoint" />
            <mxPoint x="677" y="220" as="targetPoint" />
          </mxGeometry>
        </mxCell>
        <mxCell id="lSNYRlEXptxHOEds5puz-14" value="Create Reports" style="rounded=1;whiteSpace=wrap;html=1;fontSize=12;glass=0;strokeWidth=1;shadow=0;fillColor=#fff2cc;strokeColor=#d6b656;" vertex="1" parent="WIyWlLk6GJQsqaUBKTNV-1">
          <mxGeometry x="620" y="411" width="120" height="40" as="geometry" />
        </mxCell>
        <mxCell id="lSNYRlEXptxHOEds5puz-16" value="" style="edgeStyle=segmentEdgeStyle;endArrow=classic;html=1;curved=0;rounded=0;endSize=8;startSize=8;" edge="1" parent="WIyWlLk6GJQsqaUBKTNV-1">
          <mxGeometry width="50" height="50" relative="1" as="geometry">
            <mxPoint x="587" y="365" as="sourcePoint" />
            <mxPoint x="617" y="422" as="targetPoint" />
            <Array as="points">
              <mxPoint x="587" y="355" />
              <mxPoint x="587" y="355" />
              <mxPoint x="587" y="422" />
            </Array>
          </mxGeometry>
        </mxCell>
        <mxCell id="lSNYRlEXptxHOEds5puz-23" value="" style="rounded=0;html=1;jettySize=auto;orthogonalLoop=1;fontSize=11;endArrow=block;endFill=0;endSize=8;strokeWidth=1;shadow=0;labelBackgroundColor=none;edgeStyle=orthogonalEdgeStyle;jumpSize=22;" edge="1" parent="WIyWlLk6GJQsqaUBKTNV-1">
          <mxGeometry x="0.3333" y="20" relative="1" as="geometry">
            <mxPoint as="offset" />
            <mxPoint x="720" y="250" as="sourcePoint" />
            <mxPoint x="720" y="409" as="targetPoint" />
            <Array as="points">
              <mxPoint x="720" y="240" />
            </Array>
          </mxGeometry>
        </mxCell>
      </root>
    </mxGraphModel>
  </diagram>
</mxfile>
